<?xml version="1.0" encoding="UTF-8"?>
<svg id="Layer_1" data-name="Layer 1" xmlns="http://www.w3.org/2000/svg" viewBox="0 0 718.24 178.47">
  <defs>
    <style>
      .cls-1 {
        fill: #f1f1f1;
        stroke-width: 0px;
      }
    </style>
  </defs>
  <path class="cls-1" d="M174.06,94.63c-1.68-3.06-3.5-5.87-5.44-8.34-1.17-1.49-2.41-2.89-3.69-4.19-1.3-1.29-2.7-2.53-4.18-3.71-2.91-2.28-6.04-4.31-9.28-6.02-2.34-1.25-4.9-2.44-7.94-3.67.66-.59,1.31-1.19,1.93-1.83,1.2-1.21,2.29-2.51,3.24-3.84,1.08-1.52,1.91-2.96,2.54-4.37.42-.93.78-1.89,1.08-2.85,3.7,2.2,6.93,4.46,9.83,6.88,3.88,3.25,7,6.52,9.56,9.99,2.83,3.87,4.99,7.95,6.4,12.12.36,1.07.7,2.15.9,3.25.23,1.24.23,2.13,0,2.93-.18.7-.74,1.38-1.63,2.03-.94.65-2,1.12-2.86,1.47l-.47.16ZM139.71,107.58c.49-.84,1.47-1.44,2.89-1.8,1.62-.39,3.38-.45,4.87-.45l7.08.03c2.19,0,4.54-.03,6.86-.24,2.36-.15,4.67-.61,6.9-1.06.57-.11,1.13-.23,1.7-.33.88,1.9,1.62,3.84,2.23,5.51l.3.9c.63,1.86,1.22,3.62,1.56,5.45.23,1.2.33,2.18.32,3.1-.02,1.1-.2,1.98-.53,2.62-.33.63-1.14.82-1.61.87-.31.04-.61.06-.93.06-.67,0-1.36-.08-2.05-.16-2.2-.26-4.36-.84-6.34-1.42-4.46-1.38-8.84-3.2-12.53-4.8-3.74-1.65-7.39-3.44-11.38-5.43,0-1.18.21-2.13.65-2.85M132.86,103.44c-.65,1.11-1.1,2.4-1.33,3.74l-11.56-5.52c-4.89-2.28-9.28-4.16-13.43-5.75-2.57-.98-4.85-1.76-6.98-2.39-2.88-.86-5.11-1.4-7.25-1.76-2.75-.47-5.2-.71-7.46-.75h-.46c-1.12,0-2.24.01-3.35.13-.12.02-.24.03-.36.04l.02-.02c4.2-.52,8.68-1.25,14.03-2.3,4.39-.9,9.5-1.97,14.53-3.33,5.28-1.39,9.95-2.91,14.26-4.63,2.2-.87,4.45-1.88,6.89-3.09,1.96-.99,3.94-2.11,5.89-3.33,6.5,2.33,12.34,5.36,17.37,9,2.87,2.04,5.4,4.28,7.51,6.66,1.64,1.84,3.18,3.91,4.6,6.17-2.52.41-5.09.67-7.66.77l-1.23.02c-1.29,0-2.58-.04-3.87-.09-1.33-.05-2.66-.09-4-.09l-1.26.02c-2.08.05-3.8.21-5.4.52-2.01.38-3.8,1.02-5.34,1.94-.67.42-1.54.99-2.31,1.73-.75.73-1.37,1.51-1.83,2.32M110.29,68.79v1.19c2.07,0,4.13.11,6.19.28,2.14.18,4.27.49,6.39.83.69.11,1.38.22,2.07.34-.75.37-1.51.72-2.27,1.07-1.92.88-3.9,1.64-5.87,2.39l-.48.18c-3.11,1.1-5.69,1.91-8.14,2.56-2.43.66-4.89,1.23-7.34,1.8l-1.93.43c-2.47.54-4.93,1.07-7.43,1.54-1.75.34-3.51.66-5.28.95,2.16-3.05,4.18-5.28,6.37-7.07,1.58-1.3,3.34-2.34,5.25-3.09,1.96-.78,3.97-1.34,5.98-1.67,1.96-.33,4.02-.5,6.27-.54l.21-1.19h0M80.34,44.42c3.18-.67,5.84-1.12,8.37-1.42,3.86-.49,7.85-.74,11.88-.74,7.13,0,14.52.77,21.96,2.28,4.18.89,8.26,1.99,12.11,3.25,3.59,1.2,7.11,2.6,10.47,4.17-.02.06-.11.59-.11.6-.04.24-.08.47-.16.75-.18.74-.42,1.47-.73,2.18-.58,1.37-1.38,2.71-2.38,4-1.64,2.11-3.76,4.08-6.49,5.99-5.28-1.63-10.68-2.75-16.06-3.32-2.43-.24-4.83-.37-7.13-.37-3.5,0-6.9.29-10.1.85-3.09.52-5.92,1.43-8.42,2.71-2.57,1.32-4.98,3.03-7.18,5.09-1.95,1.84-3.83,3.96-5.73,6.48-1.4,1.83-2.64,3.78-3.84,5.67l-.53.83-7.87.27c-.82.02-1.64.03-2.46.03-2.02,0-4.03-.06-6.04-.18-3.26-.2-5.91-.54-8.31-1.06-2.27-.5-5.14-1.29-7.28-2.94-.9-.7-1.55-1.64-1.82-2.61-.25-1.06-.07-2.33.16-3.51.55-2.35,1.62-4.75,3.25-7.33,3.02-4.69,6.95-8.84,11.35-12,4.32-3.1,9.34-5.59,14.94-7.42,2.31-.79,4.82-1.49,8.12-2.26M46.02,106.35c-4.23-.33-7.67-1.5-10.19-3.48-2.06-1.69-3.52-3.98-4.13-6.47-.6-2.34-.63-5.01-.12-7.95.47-2.61,1.26-5.27,2.36-7.94.22-.54.44-1.1.69-1.66.26.97.67,1.93,1.24,2.88.58.93,1.29,1.8,2.12,2.61,1.44,1.38,3.23,2.53,5.45,3.51,1.7.77,3.6,1.4,5.95,1.99,5.82,1.48,12.2,2.24,18.99,2.24,0,0,1.55,0,2.33-.03-1.42,2.16-3.07,4.47-5,6.6-2.76,3.05-5.72,5.16-8.8,6.26-1.54.58-3.29.98-5.34,1.25-1.24.16-2.49.24-3.75.24-.61,0-1.22-.02-1.81-.05M104.77,121.69c-3.47-1.07-6.88-2.18-10.18-2.92l-19.95-4.73c-1.42-.3-3.02-.69-3.98-1.6-.34-.33-.54-.78-.57-1.3-.02-.2,0-.43.02-.65l.03-.95.11-.68c.34-2.83,2.18-5.49,4.93-7.15,1.22-.76,2.68-1.35,4.34-1.75,1.57-.38,3.17-.57,4.76-.57,2.98.06,6.24.51,9.94,1.36,3.02.71,6.22,1.7,9.79,3.02,2.8,1.01,5.85,2.24,9.61,3.85,4.62,1.94,9.18,4.02,13.75,6.09l4.73,2.13c1.53,3.38,2.12,5.84,3.32,9.21,1.67,4.69,3.14,7.96,4.75,12.61.99,2.86,3.5,8.79,2.64,9.11-.85.33-3.66-3.29-4.32-4.03-2.29-2.6-2.08-2.91-10.92-9.89-7.57-5.98-19.34-10.11-22.81-11.18M149.93,146.29c-.85-4.92-7.61-25.35-7.61-25.35,4.02,1.78,8.04,3.54,12.09,5.27l.53.21c2.48,1,5.04,2.04,7.69,2.82,3.04.92,5.73,1.37,8.2,1.37l.82-.02c1.71-.12,3.28-.48,4.69-1.08.03-.01.34-.17.37-.19.63-.33,1.25-.67,1.83-1.13.54-.44,1.24-1.06,1.75-1.78.95-1.22,1.59-2.76,1.92-4.6.24-1.48.28-3.06.12-4.68-.33-3.29-1.28-6.37-2.08-8.7-.85-2.41-1.79-4.71-2.65-6.75,2.49-.96,5.33-2.42,7.45-4.95,1.24-1.57,1.99-3.35,2.16-5.14.15-1.6.07-3.31-.25-5.23-.56-3.07-1.64-6.19-3.3-9.54-1.39-2.82-3.09-5.6-5.2-8.51-5.98-8.23-14.16-15.16-24.3-20.6-8.73-4.73-18.81-8.37-29.95-10.81-8.22-1.78-16.56-2.67-24.78-2.67-2.33,0-4.66.07-6.99.22-11.52.71-21.95,3.29-30.7,7.56-.64.12-1.15.34-1.94.67l-1.71.71c-.76.34-1.51.71-2.25,1.07l-1.14.57-1.15.65c-.68.38-1.36.77-2.07,1.2l-1.07.71c-.67.43-1.35.87-1.98,1.33-3.97,2.84-7.64,6.2-10.9,10-6.74,7.9-11.29,16.97-13.17,26.24-1.06,5.67-.84,10.72.67,14.99.84,2.44,2.2,4.74,3.93,6.66,1.72,1.87,3.82,3.4,6.23,4.53,3.78,1.79,8.29,2.7,13.42,2.7l1.31-.02c4.3-.13,8.44-1.08,12.1-2.77v.03c.01,1.15.14,2.07.4,2.86.55,1.84,1.75,3.51,3.38,4.71,1.29.98,2.9,1.76,4.89,2.39,1.48.48,3.11.9,4.98,1.29,2.5.52,5.02.89,7.55,1.26l2.38.35c3.14.46,6.28,1.1,9.61,1.96,6.63,1.7,11.99,3.66,17.67,6.13,3.08,1.34,6.17,2.43,13.22,7.95l11.13,10.64s4,4,4.85,4.35c.85.35,1.5.9,3.65.54s2.72-.92,3.58-2.06c0,0,1.49-2.46.64-7.38"/>
  <path class="cls-1" d="M393.86,28.9c-4.2,0-7.6,3.27-7.6,7.29s3.4,7.29,7.6,7.29c.04,0,.08-.01.12-.01.05,0,.09.02.14.02h.04c.62,0,1.21-.13,1.78-.31,3.18-.87,5.53-3.65,5.53-6.98,0-4.03-3.4-7.29-7.6-7.29"/>
  <path class="cls-1" d="M372.12,87.84c-2.83-14.56-11.18-24.34-24.15-28.29-3.38-1.03-6.71-1.55-9.92-1.55-9.05,0-17.18,4.05-24.16,12.03-1.29,1.47-2.41,3.13-3.49,4.74-.24.35-.47.7-.71,1.05-.34-.59-.68-1.15-1.05-1.7-7.11-10.63-16.41-16.02-27.64-16.02-1.47,0-2.99.1-4.51.28-17.35,2.14-29.96,17.71-29.98,37.02,0,9.47,0,18.95,0,28.42v16.86c0,.57.43,1.04.96,1.04h7.76c.53,0,.96-.46.96-1.04v-3.3c0-4.39,0-8.78-.01-13.17-.01-9.66-.03-19.65.03-29.47.09-14.41,11-26.13,24.32-26.13,2.08,0,4.17.29,6.21.86,10.72,2.99,18.23,13.49,18.26,25.55.03,9.98.02,19.97.02,29.95v15.72c0,.57.42,1.04.95,1.04h7.66c.53,0,.96-.46.96-1.04v-3.02c0-4.41,0-8.82,0-13.23-.01-9.89-.02-20.12.03-30.18.08-13.91,11.08-25.69,24.09-25.73,13.36,0,24.3,11.69,24.37,26.07.05,9.94.04,20.06.03,29.84,0,4.44-.01,8.88,0,13.31v3c0,.57.43,1.04.96,1.04h7.59c.5,0,.92-.42.96-.96.02-.23.03-.44.05-.64.04-.46.08-.88.08-1.3v-7.86c.01-11.83.02-24.05-.02-36.08,0-2.79-.2-5.05-.6-7.11"/>
  <path class="cls-1" d="M588.09,26.17c0-.58-.04-1.17-.09-1.77-.02-.26-.04-.53-.06-.81-.03-.55-.45-.97-.96-.97h-7.67c-.53,0-.96.46-.96,1.04v18.48c0,19.84,0,39.68-.03,59.52,0,2.21-.19,4.29-.55,6.18-2.77,14.62-15.46,25.64-29.52,25.64-2.49,0-4.97-.34-7.38-1.02-8.18-2.31-14.91-7.95-18.96-15.88-3.99-7.82-4.8-16.79-2.3-25.28,4-13.57,15.53-22.68,28.7-22.68,5.96,0,11.8,1.91,16.9,5.53,1.37.97,2.67,1.46,3.87,1.46,1.5,0,2.79-.77,3.73-2.24.75-1.16,1.03-2.43.82-3.66-.27-1.54-1.31-3.01-3.02-4.24-6.83-4.93-14.18-7.43-21.84-7.43-2.73,0-5.53.32-8.33.96-21.53,4.88-34.94,26.37-31.2,49.97,3.11,19.65,20.32,35.05,39.18,35.05,3.16,0,6.31-.43,9.35-1.29,18.34-5.16,30.24-21.8,30.29-42.4.05-18.01.04-36.33.02-54.04,0-6.7-.01-13.41-.01-20.11"/>
  <path class="cls-1" d="M680.99,100.33c-.01-2.65-.2-4.98-.58-7.11-3.63-20.33-20.06-35.08-39.06-35.08-2.08,0-4.2.18-6.28.53-11.51,1.92-21.65,9.24-27.82,20.08-6.02,10.57-7.46,23.27-3.96,34.82,5.3,17.5,16.69,27.6,33.85,29.99,1.62.23,3.25.34,4.85.34,7.63,0,15.11-2.63,22.24-7.83,2.46-1.79,3.14-4.69,1.69-7.21-.9-1.56-2.37-2.45-4.03-2.45-.97,0-1.99.31-2.94.89-.19.12-.37.25-.55.38-.1.07-.19.14-.29.21-5.56,3.82-11.22,5.76-16.83,5.76-5.09,0-10.2-1.6-15.19-4.77-10.79-6.85-15.74-17.31-14.71-31.1,1.21-16.15,14.57-29.29,29.78-29.29,2.24,0,4.47.29,6.65.86,14.24,3.73,23.48,16.32,23.54,32.08.03,8.37.03,16.73.02,25.1,0,3.78,0,14.23,0,14.23,0,.57.43,1.04.96,1.04h7.73c.53,0,.96-.46.96-1.04v-12.18c0-9.26.01-18.84-.03-28.25"/>
  <path class="cls-1" d="M494.11,90.97c-4-19.02-20.25-32.83-38.65-32.83-2.09,0-4.23.17-6.34.52-18.32,2.99-33.28,21.42-33.33,41.09-.03,9.92-.02,19.85-.02,29.77v8.72c0,.58.04,1.17.07,1.77.02.27.03.54.04.82.03.55.45.98.96.98h7.55c.53,0,.96-.46.96-1.04,0-2.96,0-5.89,0-8.8-.01-7.1-.02-13.82.03-20.67,0-.96,0-1.91,0-2.87,0-4.03,0-8.2.46-12.2,1.78-15.54,14.76-27.72,29.55-27.72,2.25,0,4.51.29,6.69.86,14.18,3.7,23.41,16.4,23.5,32.36.05,8.25.04,16.64.03,24.75,0,3.71-.01,7.43-.01,11.14v3.1c0,.57.43,1.04.96,1.04h7.7c.51,0,.92-.42.96-.97l.04-.59c.03-.41.06-.77.06-1.13,0-3.25,0-6.5.01-9.75.02-9.34.03-18.99-.07-28.49-.03-3-.42-6.23-1.19-9.89"/>
  <path class="cls-1" d="M397.89,60.38h-7.4c-.53,0-.96.46-.96,1.04v79.26c0,.57.43,1.04.96,1.04h7.4c.53,0,.96-.46.96-1.04V61.42c0-.57-.43-1.04-.96-1.04"/>
</svg>